# xmcd
#
# Track frame offsets:
#	150
#	30591
#	48052
#	69731
#	92798
#	117774
#	139180
#	160106
#	179277
#	199622
#	221534
#	244605
#	266134
#	288365
#	309956
#
# Disc length: 4405 seconds
#
# Revision: 1
# Processed by: cddbd v1.5.1PL0 Copyright (c) Steve Scherf et al.
# Submitted via: audiograbber 1.83.01
#
DISCID=cf11330f
DTITLE=Utada Hikaru - ???? Baby I Like
DYEAR=2004
DGENRE=
TTITLE0=Baby I Like
TTITLE1=Delicious Way
TTITLE2=Wait and See
TTITLE3=For You
TTITLE4=Distance
TTITLE5=Letters
TTITLE6=Nights ????
TTITLE7=??????
TTITLE8=Deep River
TTITLE9=A.S.A.P.
TTITLE10=Traveling
TTITLE11=Can you keep a Secret
TTITLE12=Sakura ????
TTITLE13=I Love You
TTITLE14=Light ?
EXTD=
EXTT0=
EXTT1=
EXTT2=
EXTT3=
EXTT4=
EXTT5=
EXTT6=
EXTT7=
EXTT8=
EXTT9=
EXTT10=
EXTT11=
EXTT12=
EXTT13=
EXTT14=
PLAYORDER=
